<?xml version="1.0" encoding="utf-8"?>
<!-- Generator: Adobe Illustrator 28.2.0, SVG Export Plug-In . SVG Version: 6.00 Build 0)  -->
<svg version="1.1" id="Capa_1" xmlns="http://www.w3.org/2000/svg" xmlns:xlink="http://www.w3.org/1999/xlink" x="0px" y="0px"
	 viewBox="0 0 32 32" style="enable-background:new 0 0 32 32;" xml:space="preserve">
<style type="text/css">
	.st0{opacity:0.85;fill:#F7C716;enable-background:new    ;}
	.st1{fill:#1D1D1B;}
</style>
<path class="st0" d="M29.8,29.5H2.1c-0.8,0-1.5-0.7-1.5-1.4V3.9c0-0.8,0.7-1.4,1.5-1.4h27.8c0.8,0,1.5,0.7,1.5,1.4V28
	C31.4,28.9,30.7,29.5,29.8,29.5z"/>
<g>
	<path class="st1" d="M4.4,7.5H7V8H5v1.6h1.8V10H5v2.1H4.4V7.5z"/>
	<path class="st1" d="M8.4,7.5v2.8c0,1.1,0.5,1.5,1.1,1.5c0.7,0,1.1-0.5,1.1-1.5V7.5h0.6v2.8c0,1.5-0.8,2-1.8,2s-1.7-0.6-1.7-2V7.5
		H8.4z"/>
	<path class="st1" d="M12.3,7.5H13v4.2h2v0.5h-2.6L12.3,7.5L12.3,7.5z"/>
	<path class="st1" d="M15.7,7.5h0.6v4.2h2v0.5h-2.6C15.7,12.2,15.7,7.5,15.7,7.5z"/>
	<path class="st1" d="M20,7.5v1.8h1.8V7.5h1.1v4.7h-1.1v-2H20v2h-1.1V7.5H20z"/>
	<path class="st1" d="M23.7,7.5c0.4-0.1,0.9-0.1,1.4-0.1c0.9,0,1.5,0.2,1.9,0.5c0.5,0.4,0.8,0.9,0.8,1.8s-0.3,1.5-0.8,1.9
		s-1.3,0.6-2.2,0.6c-0.6,0-0.9,0-1.2-0.1V7.5H23.7z M24.8,11.4c0.1,0,0.2,0,0.4,0c1,0,1.6-0.5,1.6-1.7c0-1-0.6-1.5-1.5-1.5
		c-0.2,0-0.4,0-0.5,0V11.4z"/>
</g>
<path class="st1" d="M-3.5,17.5"/>
<g>
	<path class="st1" d="M11.5,23.4v-1.8c0-1.1,0-1.7,0-2.4c-0.4,0.9-1.7,2.8-2.7,4.2C8.8,23.4,11.5,23.4,11.5,23.4z"/>
	<path class="st1" d="M29.3,3.5H2.7C2,3.5,1.5,4,1.5,4.7v22.7c0,0.6,0.5,1.2,1.2,1.2h26.7c0.6,0,1.2-0.5,1.2-1.2V4.7
		C30.5,4,30,3.5,29.3,3.5z M14.6,25.2h-1v2.3h-2.1v-2.3H6.9v-1.9l4.3-6h2.4v6.1h1.2L14.6,25.2z M23.1,27.5l-3.3-4.7l-1.1,1.1v3.7
		h-2.3V16.8h2.3v4.8c0.7-0.8,2.9-3.2,4.3-4.8h2.8l-4.3,4.4l4.5,6.2h-2.9V27.5z M29.5,14.7c0,0.5-0.3,0.9-0.7,0.9H3.3
		c-0.4,0-0.7-0.4-0.7-0.9V5.5c0-0.5,0.3-0.9,0.7-0.9h25.5c0.4,0,0.7,0.4,0.7,0.9V14.7z"/>
</g>
</svg>
