<?xml version="1.0" encoding="utf-8"?>
<!-- Generator: Adobe Illustrator 28.2.0, SVG Export Plug-In . SVG Version: 6.00 Build 0)  -->
<svg version="1.1" id="Capa_1" xmlns="http://www.w3.org/2000/svg" xmlns:xlink="http://www.w3.org/1999/xlink" x="0px" y="0px"
	 viewBox="0 0 32 32" style="enable-background:new 0 0 32 32;" xml:space="preserve">
<style type="text/css">
	.st0{opacity:0.85;fill:#FFFFFF;enable-background:new    ;}
	.st1{fill:#1D1D1B;}
</style>
<path class="st0" d="M29.8,29.5H2.1c-0.8,0-1.5-0.7-1.5-1.4V3.9c0-0.8,0.7-1.4,1.5-1.4h27.8c0.8,0,1.5,0.7,1.5,1.4V28
	C31.4,28.9,30.7,29.5,29.8,29.5z"/>
<g>
	<path class="st1" d="M4.3,7.5h2.6V8h-2v1.6h1.8V10H4.9v2.1H4.3V7.5z"/>
	<path class="st1" d="M8.3,7.5v2.8c0,1.1,0.5,1.5,1.1,1.5c0.7,0,1.1-0.5,1.1-1.5V7.5h0.6v2.8c0,1.5-0.8,2-1.8,2s-1.7-0.6-1.7-2V7.5
		H8.3z"/>
	<path class="st1" d="M12.2,7.5h0.7v4.2h2v0.5h-2.6L12.2,7.5L12.2,7.5z"/>
	<path class="st1" d="M15.6,7.5h0.6v4.2h2v0.5h-2.6V7.5z"/>
	<path class="st1" d="M19.9,7.5v1.8h1.8V7.5h1.1v4.7h-1.1v-2h-1.8v2h-1.1V7.5H19.9z"/>
	<path class="st1" d="M23.6,7.5C24,7.4,24.5,7.4,25,7.4c0.9,0,1.5,0.2,1.9,0.5c0.5,0.4,0.8,0.9,0.8,1.8s-0.3,1.5-0.8,1.9
		s-1.3,0.6-2.2,0.6c-0.6,0-0.9,0-1.2-0.1V7.5H23.6z M24.7,11.4c0.1,0,0.2,0,0.4,0c1,0,1.6-0.5,1.6-1.7c0-1-0.6-1.5-1.5-1.5
		c-0.2,0-0.4,0-0.5,0V11.4z"/>
</g>
<g>
	<path class="st1" d="M20.1,19.6c-0.7,0-0.9,0.7-0.9,1.9c0,1,0.1,1.9,0.9,1.9s0.9-0.9,0.9-2C21,20.5,20.8,19.6,20.1,19.6z"/>
	<path class="st1" d="M15.1,21.9c-0.6,0-0.9,0.3-0.9,0.8s0.4,0.8,0.9,0.8s0.9-0.2,0.9-0.8C16,22.2,15.6,21.9,15.1,21.9z"/>
	<path class="st1" d="M10,19.6c-0.7,0-0.9,0.7-0.9,1.9c0,1,0.1,1.9,0.9,1.9c0.8,0,0.9-0.9,0.9-2C10.9,20.5,10.8,19.6,10,19.6z"/>
	<path class="st1" d="M15.1,20.9c0.5,0,0.8-0.2,0.8-0.6s-0.3-0.7-0.8-0.7s-0.8,0.2-0.8,0.7C14.3,20.7,14.6,20.9,15.1,20.9z"/>
	<path class="st1" d="M25.2,20.8c-0.7,0-0.9,0.4-0.9,1.3c0,0.8,0.2,1.3,0.9,1.3c0.6,0,1-0.5,1-1.4C26.1,21.3,25.8,20.8,25.2,20.8z"
		/>
	<path class="st1" d="M29.2,3.4H2.6c-0.7,0-1.2,0.5-1.2,1.2v22.7c0,0.6,0.5,1.2,1.2,1.2h26.7c0.6,0,1.2-0.5,1.2-1.2V4.6
		C30.4,3.9,29.9,3.4,29.2,3.4z M6.8,24.4H5.5v-4.2c-0.3,0.1-0.7,0.2-1,0.2v-0.9c0.5-0.1,1.1-0.4,1.4-0.8h0.9V24.4z M10,24.5
		c-1.6,0-2.1-1.3-2.1-2.9c0-1.5,0.6-2.9,2.2-2.9s2.1,1.3,2.1,2.9C12.2,23.1,11.7,24.5,10,24.5z M15,24.5c-1.1,0-2.1-0.6-2.1-1.7
		c0-0.7,0.5-1.2,0.9-1.3c-0.4-0.3-0.7-0.6-0.7-1.2c0-1,0.7-1.6,2-1.6c1.2,0,1.9,0.6,1.9,1.6c0,0.6-0.3,1-0.7,1.1
		c0.4,0.1,0.9,0.6,0.9,1.4C17.2,23.9,16.3,24.5,15,24.5z M20.1,24.5c-1.6,0-2.1-1.3-2.1-2.9c0-1.5,0.6-2.9,2.2-2.9s2.1,1.3,2.1,2.9
		C22.2,23.1,21.8,24.5,20.1,24.5z M25.4,24.5c-0.6,0-0.9-0.2-1.1-0.5v2.1h-1.2v-5c0-0.4,0-0.7,0-1.1h1.2c0,0.1,0,0.4,0,0.5
		c0.2-0.3,0.6-0.7,1.3-0.7c1,0,1.8,0.8,1.8,2.2C27.4,23.6,26.5,24.5,25.4,24.5z M29.4,14.6c0,0.5-0.3,0.9-0.7,0.9H3.2
		c-0.4,0-0.7-0.4-0.7-0.9V5.4c0-0.5,0.3-0.9,0.7-0.9h25.5c0.4,0,0.7,0.4,0.7,0.9C29.4,5.4,29.4,14.6,29.4,14.6z"/>
</g>
<path class="st1" d="M-3.5,17.5"/>
</svg>
